<svg width="64" height="64" viewBox="0 0 64 64" fill="none" xmlns="http://www.w3.org/2000/svg">
<path d="M53.334 32C53.334 20.218 43.7827 10.6667 32.0007 10.6667C20.2186 10.6667 10.6673 20.218 10.6673 32C10.6673 43.7821 20.2186 53.3334 32.0007 53.3334C43.7827 53.3334 53.334 43.7821 53.334 32ZM38.1152 27.448C39.1566 26.4066 40.8447 26.4066 41.8861 27.448C42.9275 28.4894 42.9275 30.1774 41.8861 31.2188L33.8861 39.2188C32.8447 40.2602 31.1566 40.2602 30.1152 39.2188L22.1152 31.2188C21.0738 30.1774 21.0738 28.4894 22.1152 27.448C23.1566 26.4066 24.8447 26.4066 25.8861 27.448L32.0007 33.5625L38.1152 27.448ZM58.6673 32C58.6673 46.7276 46.7282 58.6667 32.0007 58.6667C17.2731 58.6667 5.33398 46.7276 5.33398 32C5.33398 17.2724 17.2731 5.33337 32.0007 5.33337C46.7282 5.33337 58.6673 17.2724 58.6673 32Z" fill="#D0A82D"/>
</svg>
