<svg width="496" height="496" viewBox="0 0 496 496" fill="none" xmlns="http://www.w3.org/2000/svg">
<rect width="496" height="496" fill="#00AAC4"/>
<path d="M321.14 42.3062C298.877 36.4939 273.439 32 248 32C176 32 104 68 104 68L68 356C68 356 212 464 248 464C271.236 464 339.462 419.009 384.923 387.104C396.509 378.973 410 327.5 410 327.5L371 85C371 85 342.028 47.7593 321.14 42.3062ZM176 248C111.5 248 129 172.5 129 172.5C129 172.5 227.959 130.582 212 211.89C212.013 221.452 208.228 230.628 201.477 237.399C194.726 244.171 185.562 247.984 176 248ZM357.5 251H282V172.5H357.5V251Z" fill="white"/>
<path d="M428 356L392 68.0001C369.229 57.2455 345.503 48.6447 321.13 42.3101C331.737 48.6855 340.52 57.6903 346.629 68.4535C352.737 79.2168 355.965 91.3742 356 103.75C356 103.75 356 103.84 356 103.89V104C356 104 356 104.09 356 104.13C355.952 113.651 352.14 122.767 345.396 129.487C338.651 136.208 329.521 139.987 320 140C301.241 140.006 283.225 147.334 269.787 160.423C256.349 173.511 248.55 191.328 248.05 210.08C248.05 210.7 248 211.34 248 212C247.953 247.924 261.388 282.557 285.65 309.05C287.936 301.728 292.502 295.327 298.681 290.782C304.86 286.236 312.329 283.783 320 283.78C320.676 283.773 321.35 283.864 322 284.05C333.991 284.388 345.707 287.716 356.085 293.733C366.463 299.749 375.173 308.263 381.424 318.501C387.675 328.739 391.269 340.377 391.88 352.357C392.49 364.337 390.098 376.28 384.92 387.1C409.89 369.58 428 356 428 356ZM320 248C312.853 248.022 305.861 245.923 299.908 241.968C293.956 238.013 289.31 232.381 286.56 225.785C283.81 219.189 283.08 211.925 284.46 204.913C285.841 197.901 289.272 191.457 294.317 186.396C299.363 181.334 305.797 177.884 312.805 176.482C319.812 175.08 327.079 175.789 333.683 178.518C340.288 181.248 345.934 185.876 349.907 191.817C353.879 197.758 356 204.743 356 211.89C356.013 221.452 352.228 230.628 345.477 237.399C338.726 244.171 329.562 247.984 320 248Z" fill="#070707"/>
<path d="M140 211.89C140 202.342 143.793 193.185 150.544 186.434C157.296 179.683 166.452 175.89 176 175.89C185.548 175.89 194.705 179.683 201.456 186.434C208.207 193.185 212 202.342 212 211.89V212C212.016 204.023 214.675 196.276 219.559 189.969C224.444 183.662 231.28 179.151 239 177.14C230.525 161.789 216.739 150.058 200.229 144.149C183.719 138.24 165.62 138.56 149.329 145.048C133.037 151.536 119.674 163.746 111.746 179.387C103.818 195.028 101.871 213.025 106.27 230C127.602 241.837 151.603 248.033 176 248C166.438 247.984 157.274 244.171 150.523 237.399C143.772 230.628 139.987 221.452 140 211.89V211.89Z" fill="#070707"/>
</svg>
