<svg width="372" height="120" viewBox="0 0 372 120" fill="none" xmlns="http://www.w3.org/2000/svg">
<path d="M7.96875 20.3281H16.6875V86.8438H35.9531V95H7.96875V20.3281ZM60.375 18.0312L82.0781 95H72.7031L69.4219 82.5781H51.2812L48.0469 95H38.6719L60.375 18.0312ZM67.2656 74.3281L62.25 55.0625L60.3281 46.1562L58.5 55.0625L53.4375 74.3281H67.2656ZM91.4062 19.4844C96.5625 19.7656 101.234 20.8281 105.422 22.6719C109.609 24.5156 113.188 27.0625 116.156 30.3125C119.156 33.5625 121.469 37.4844 123.094 42.0781C124.719 46.6719 125.531 51.875 125.531 57.6875C125.531 63.5 124.719 68.7031 123.094 73.2969C121.469 77.8906 119.156 81.8125 116.156 85.0625C113.188 88.3125 109.609 90.8594 105.422 92.7031C101.234 94.5469 96.5625 95.6094 91.4062 95.8906V19.4844ZM100.125 85.7656C102.125 85.1406 104.094 84.1406 106.031 82.7656C108 81.3906 109.75 79.5781 111.281 77.3281C112.844 75.0781 114.094 72.3438 115.031 69.125C116 65.875 116.484 62.0625 116.484 57.6875C116.484 53.3125 116 49.5156 115.031 46.2969C114.094 43.0469 112.844 40.2969 111.281 38.0469C109.75 35.7969 108 33.9844 106.031 32.6094C104.094 31.2344 102.125 30.2344 100.125 29.6094V85.7656ZM146.672 69.5469L131.203 20.2812H140.578L151.078 57.125L161.578 20.2812H170.953L155.391 69.875V95H146.672V69.5469ZM190.266 20.3281H199.641L206.812 57.6875L208.641 69.6875L212.859 57.6875L218.109 43.3438L223.359 57.6875L227.531 69.6875L229.406 57.6875L236.578 20.3281H245.953L229.875 97.2969L221.812 75.4062L218.109 64.9531L214.406 75.4062L206.344 97.2969L190.266 20.3281ZM271.875 95.8906C270.375 95.8906 268.828 95.6562 267.234 95.1875C265.672 94.75 264.141 93.9844 262.641 92.8906C261.141 91.7656 259.719 90.2812 258.375 88.4375C257.031 86.5625 255.844 84.2188 254.812 81.4062C253.812 78.5625 253.016 75.1875 252.422 71.2812C251.828 67.375 251.531 62.8438 251.531 57.6875C251.531 52.5312 251.828 48 252.422 44.0938C253.016 40.1875 253.812 36.8281 254.812 34.0156C255.844 31.1719 257.031 28.8281 258.375 26.9844C259.719 25.1094 261.141 23.625 262.641 22.5312C264.141 21.4062 265.672 20.625 267.234 20.1875C268.828 19.7188 270.375 19.4844 271.875 19.4844C273.344 19.4844 274.875 19.7188 276.469 20.1875C278.062 20.625 279.609 21.4062 281.109 22.5312C282.609 23.625 284.031 25.1094 285.375 26.9844C286.719 28.8281 287.891 31.1719 288.891 34.0156C289.922 36.8281 290.734 40.1875 291.328 44.0938C291.922 48 292.219 52.5312 292.219 57.6875C292.219 62.8438 291.922 67.375 291.328 71.2812C290.734 75.1875 289.922 78.5625 288.891 81.4062C287.891 84.2188 286.719 86.5625 285.375 88.4375C284.031 90.2812 282.609 91.7656 281.109 92.8906C279.609 93.9844 278.062 94.75 276.469 95.1875C274.875 95.6562 273.344 95.8906 271.875 95.8906ZM271.875 87.2656C273.188 87.2656 274.516 86.7969 275.859 85.8594C277.203 84.8906 278.406 83.2812 279.469 81.0312C280.562 78.75 281.453 75.7188 282.141 71.9375C282.828 68.125 283.172 63.375 283.172 57.6875C283.172 52 282.828 47.2656 282.141 43.4844C281.453 39.6719 280.562 36.6406 279.469 34.3906C278.406 32.1094 277.203 30.5 275.859 29.5625C274.516 28.5937 273.188 28.1094 271.875 28.1094C270.562 28.1094 269.234 28.5937 267.891 29.5625C266.547 30.5 265.328 32.1094 264.234 34.3906C263.172 36.6406 262.297 39.6719 261.609 43.4844C260.922 47.2656 260.578 52 260.578 57.6875C260.578 63.375 260.922 68.125 261.609 71.9375C262.297 75.7188 263.172 78.75 264.234 81.0312C265.328 83.2812 266.547 84.8906 267.891 85.8594C269.234 86.7969 270.562 87.2656 271.875 87.2656ZM304.5 20.3281H313.219V86.8438H332.484V95H304.5V20.3281ZM341.906 20.2812L367.406 20.3281V28.5781H350.625V60.1719H365.062V68.4219H350.625V95H341.906V20.2812Z" fill="white"/>
</svg>
