<svg width="360" height="432" viewBox="0 0 360 432" fill="none" xmlns="http://www.w3.org/2000/svg">
<path d="M253.14 10.3062C230.877 4.4939 205.439 0 180 0C108 0 36 36 36 36L0 324C0 324 144 432 180 432C203.236 432 271.462 387.009 316.923 355.104C328.509 346.973 342 295.5 342 295.5L303 53C303 53 274.028 15.7593 253.14 10.3062ZM108 216C47.9294 235.547 61 140.5 61 140.5C61 140.5 159.959 98.5823 144 179.89C144.013 189.452 140.228 198.628 133.477 205.399C126.726 212.171 117.562 215.984 108 216ZM289.5 219H214V140.5H289.5V219Z" fill="white"/>
<path d="M360 324L324 36C301.229 25.2455 277.503 16.6447 253.13 10.31C263.737 16.6855 272.52 25.6903 278.629 36.4535C284.737 47.2167 287.965 59.3742 288 71.75C288 71.75 288 71.84 288 71.89V72C288 72 288 72.09 288 72.13C287.952 81.6512 284.14 90.7669 277.396 97.4873C270.651 104.208 261.521 107.987 252 108C233.241 108.006 215.225 115.334 201.787 128.422C188.349 141.511 180.55 159.328 180.05 178.08C180.05 178.7 180 179.34 180 180C179.953 215.924 193.388 250.557 217.65 277.05C219.936 269.728 224.502 263.327 230.681 258.782C236.86 254.236 244.329 251.783 252 251.78C252.676 251.773 253.35 251.864 254 252.05C265.991 252.388 277.707 255.716 288.085 261.732C298.463 267.749 307.173 276.263 313.424 286.501C319.675 296.739 323.269 308.377 323.88 320.357C324.49 332.337 322.098 344.279 316.92 355.1C341.89 337.58 360 324 360 324ZM252 216C244.853 216.022 237.861 213.922 231.908 209.968C225.956 206.013 221.31 200.381 218.56 193.785C215.81 187.189 215.08 179.925 216.46 172.913C217.841 165.901 221.272 159.457 226.317 154.396C231.363 149.334 237.797 145.884 244.805 144.482C251.812 143.08 259.079 143.788 265.683 146.518C272.288 149.248 277.934 153.876 281.907 159.817C285.879 165.758 288 172.743 288 179.89C288.013 189.452 284.228 198.628 277.477 205.399C270.726 212.171 261.562 215.984 252 216Z" fill="#070707"/>
<path d="M72 179.89C72 170.342 75.7929 161.185 82.5442 154.434C89.2955 147.683 98.4522 143.89 108 143.89C117.548 143.89 126.705 147.683 133.456 154.434C140.207 161.185 144 170.342 144 179.89V180C144.016 172.023 146.675 164.276 151.559 157.969C156.444 151.662 163.28 147.151 171 145.14C162.525 129.789 148.739 118.058 132.229 112.149C115.719 106.24 97.6197 106.56 81.3286 113.048C65.0375 119.536 51.674 131.746 43.7462 147.387C35.8184 163.029 33.8712 181.025 38.27 198C59.6023 209.837 83.6035 216.033 108 216C98.4381 215.984 89.2739 212.171 82.5229 205.399C75.7718 198.628 71.9868 189.452 72 179.89V179.89Z" fill="#070707"/>
</svg>
