<svg width="431" height="109" viewBox="0 0 431 109" fill="none" xmlns="http://www.w3.org/2000/svg">
<g clip-path="url(#clip0_322:79)">
<path d="M438.305 -7.26654H-7.30493V116.267H438.305V-7.26654Z" fill="#00AAC4"/>
<path d="M113.635 72.909C111.259 67.6555 110.072 61.1962 110.072 53.5312C110.055 49.4978 110.601 45.4817 111.695 41.5977C112.62 38.053 114.426 34.7963 116.946 32.1268C118.126 30.8962 119.554 29.9267 121.135 29.2812C122.717 28.6357 124.418 28.3288 126.126 28.3805C128.859 28.3405 131.517 29.2741 133.618 31.0126C135.821 32.8414 137.524 35.1936 138.57 37.8514C139.718 40.6444 140.306 43.6343 140.298 46.6521L130.68 47.0881C130.634 44.7538 130.293 42.4345 129.665 40.1848C128.984 37.6011 127.628 36.3011 125.607 36.3011C123.586 36.3011 122.011 37.9886 121.2 41.3636C120.325 45.3403 119.916 49.4044 119.982 53.4747C119.982 59.3096 120.434 63.9952 121.338 67.5317C122.241 71.0681 123.981 72.8309 126.557 72.8202C128.359 72.8202 129.649 71.7544 130.412 69.5905C131.258 67.0743 131.76 64.4564 131.906 61.8071L140.38 62.6146C140.412 65.6902 139.861 68.7444 138.756 71.6171C137.784 74.2362 136.097 76.5342 133.886 78.254C131.603 79.9548 128.807 80.8344 125.956 80.7489C120.117 80.7812 116.01 78.1679 113.635 72.909Z" fill="#00080A"/>
<path d="M143.561 79.8607L154.275 29.8741L168.439 29.2686L179.381 79.449L168.537 79.8607L166.71 69.0011H154.535L152.368 79.8607H143.561ZM156.443 60.9109H164.908L160.233 36.6887L156.443 60.9109Z" fill="#00080A"/>
<path d="M198.666 57.6731H194.802V79.4731L184.908 80.2805V29.6964L196.969 29.2927C202.797 29.2927 207.361 30.45 210.662 32.7645C213.963 35.0791 215.611 38.6183 215.605 43.382C215.719 46.088 215.073 48.7721 213.738 51.1331C212.405 53.2469 210.553 54.9888 208.357 56.1955L212.894 67.1843L218.024 79.2954L207.562 80.232L198.666 57.6731ZM198.187 50.4064C200.138 50.5168 202.073 50.0079 203.714 48.9531C205.045 47.9842 205.711 46.1594 205.711 43.4627C205.711 39.2803 203.633 37.1891 199.477 37.1891H194.802V50.3983L198.187 50.4064Z" fill="#00080A"/>
<path d="M246.92 80.2643L232.075 48.6463V79.4488L223.211 79.8606V29.6964L233.584 29.2927L246.75 59.3605V30.1001L255.151 29.2927V79.4488L246.92 80.2643Z" fill="#00080A"/>
<path d="M260.678 79.8607L271.384 29.8741L285.548 29.2686L296.53 79.449L285.71 79.8607L283.876 69.0011H271.725L269.558 79.8607H260.678ZM273.535 60.9109H282.009L277.333 36.6887L273.535 60.9109Z" fill="#00080A"/>
<path d="M309.808 79.8606L297.812 29.6964L309.605 29.2927L316.318 64.2131L323.363 29.6964L332.925 29.2927L320.75 79.8606H309.808Z" fill="#00080A"/>
<path d="M334.207 79.8607L344.962 29.8741L359.126 29.2686L370.059 79.449L359.215 79.8607L357.389 69.0011H345.254L343.087 79.8607H334.207ZM347.089 60.9109H355.562L350.879 36.6887L347.089 60.9109Z" fill="#00080A"/>
<path d="M375.554 79.8606V30.1001L385.449 29.2927V71.9722H402.12L401.106 79.8606H375.554Z" fill="#00080A"/>
<path d="M102.271 7.26657H20.8682V101.733H102.271V7.26657Z" fill="#00AAC4"/>
<path d="M88.708 20.7585C88.708 20.7585 75.1367 14.0167 61.5736 14.0167C48.0105 14.0167 34.4393 20.7585 34.4393 20.7585L27.6537 74.7418C27.6537 74.7418 54.788 94.9835 61.5736 94.9835C68.3592 94.9835 95.4854 74.7418 95.4854 74.7418L88.708 20.7585ZM48.0024 54.5001C46.6541 54.5049 45.3348 54.1115 44.2115 53.3697C43.0883 52.6279 42.2116 51.5711 41.6927 50.3333C41.1738 49.0954 41.0359 47.7322 41.2966 46.4163C41.5572 45.1004 42.2047 43.8912 43.1569 42.9417C44.1092 41.9922 45.3233 41.3452 46.6455 41.0828C47.9677 40.8204 49.3384 40.9542 50.5841 41.4675C51.8297 41.9807 52.8942 42.8502 53.6426 43.9658C54.391 45.0814 54.7896 46.3929 54.788 47.734C54.7901 48.6218 54.6162 49.5013 54.2762 50.3221C53.9361 51.1429 53.4366 51.8889 52.8063 52.5174C52.176 53.1459 51.4272 53.6445 50.6029 53.9847C49.7786 54.325 48.8949 54.5001 48.0024 54.5001ZM75.1367 54.5001C73.7885 54.5049 72.4691 54.1115 71.3459 53.3697C70.2226 52.6279 69.346 51.5711 68.827 50.3333C68.3081 49.0954 68.1702 47.7322 68.4309 46.4163C68.6916 45.1004 69.339 43.8912 70.2913 42.9417C71.2435 41.9922 72.4576 41.3452 73.7798 41.0828C75.102 40.8204 76.4728 40.9542 77.7184 41.4675C78.9641 41.9807 80.0285 42.8502 80.7769 43.9658C81.5253 45.0814 81.9239 46.3929 81.9223 47.734C81.9234 48.6215 81.7487 49.5005 81.4083 50.3208C81.0679 51.1411 80.5683 51.8867 79.9382 52.515C79.3081 53.1433 78.5598 53.642 77.736 53.9826C76.9121 54.3232 76.0289 54.499 75.1367 54.5001Z" fill="white"/>
<path d="M95.4857 74.7418L88.7082 20.7586C84.4158 18.7343 79.9431 17.1125 75.348 15.9141C77.3504 17.1108 79.008 18.8019 80.1599 20.8234C81.3118 22.8449 81.919 25.1283 81.9226 27.452C81.914 29.2373 81.1956 30.9467 79.9242 32.2069C78.6528 33.4671 76.9318 34.1756 75.137 34.1777C71.5885 34.1791 68.1819 35.5637 65.6479 38.0346C63.1138 40.5055 61.6542 43.8659 61.582 47.3949C61.582 47.508 61.582 47.6291 61.582 47.7502C61.568 54.483 64.097 60.9755 68.6679 65.9411C69.0999 64.5657 69.9635 63.3642 71.132 62.5127C72.3006 61.6612 73.7128 61.2045 75.1613 61.2097C75.2902 61.2067 75.4188 61.223 75.5428 61.2581C77.8035 61.3174 80.0133 61.9387 81.9706 63.0654C83.928 64.1921 85.5707 65.7883 86.7489 67.7084C87.9271 69.6286 88.6033 71.8116 88.7158 74.0583C88.8284 76.3051 88.3737 78.5442 87.3933 80.5713C92.101 77.2852 95.5101 74.7418 95.5101 74.7418H95.4857ZM75.137 54.5001C73.7887 54.5049 72.4694 54.1115 71.3461 53.3697C70.2228 52.6279 69.3462 51.5711 68.8273 50.3333C68.3083 49.0954 68.1705 47.7322 68.4311 46.4163C68.6918 45.1005 69.3393 43.8912 70.2915 42.9417C71.2437 41.9922 72.4579 41.3453 73.7801 41.0828C75.1023 40.8204 76.473 40.9543 77.7187 41.4675C78.9643 41.9807 80.0287 42.8502 80.7771 43.9658C81.5255 45.0814 81.9242 46.3929 81.9226 47.7341C81.9237 48.6215 81.749 49.5005 81.4086 50.3208C81.0681 51.1412 80.5686 51.8868 79.9385 52.515C79.3084 53.1433 78.56 53.642 77.7362 53.9826C76.9124 54.3232 76.0291 54.4991 75.137 54.5001Z" fill="#00080A"/>
<path d="M41.2248 47.7338C41.1933 46.8283 41.3454 45.9257 41.672 45.0799C41.9987 44.2341 42.4931 43.4624 43.126 42.8107C43.7588 42.159 44.5171 41.6408 45.3555 41.2868C46.194 40.9329 47.0955 40.7504 48.0064 40.7504C48.9172 40.7504 49.8188 40.9329 50.6572 41.2868C51.4957 41.6408 52.2539 42.159 52.8868 42.8107C53.5196 43.4624 54.0141 44.2341 54.3407 45.0799C54.6673 45.9257 54.8194 46.8283 54.7879 47.7338C54.7915 46.2387 55.2928 44.7869 56.2136 43.6051C57.1343 42.4234 58.4226 41.5783 59.8771 41.2019C58.4188 38.5875 56.1292 36.5287 53.3676 35.3485C50.606 34.1682 47.5287 33.9333 44.6184 34.6806C41.7081 35.4279 39.1295 37.1151 37.2873 39.4776C35.445 41.84 34.4433 44.7439 34.4392 47.7338C34.4453 48.8793 34.6008 50.0192 34.9019 51.1249C38.9095 53.3387 43.4182 54.5002 48.0023 54.4999C47.1105 54.4988 46.2277 54.3229 45.4043 53.9822C44.5809 53.6415 43.8331 53.1427 43.2037 52.5143C42.5742 51.8859 42.0754 51.1402 41.7359 50.32C41.3964 49.4997 41.2227 48.6209 41.2248 47.7338Z" fill="#00080A"/>
</g>
<defs>
<clipPath id="clip0_322:79">
<rect width="431" height="109" fill="white"/>
</clipPath>
</defs>
</svg>
